<svg width="54" height="26" fill="none" xmlns="http://www.w3.org/2000/svg"><path fill-rule="evenodd" clip-rule="evenodd" d="M35.785 3.18c.36.347.586.714.67 1.088 2.962.201 5.754 1.226 7.872 2.908 2.374 1.885 3.708 4.442 3.708 7.107h-2.08c0-2.227-1.115-4.364-3.099-5.94-1.983-1.575-4.674-2.46-7.48-2.46-2.69 0-5.009.608-6.944 2.047.17.165.333.335.489.508 1.83-1.032 4.102-1.6 6.456-1.6 2.764 0 5.416.784 7.37 2.18 1.956 1.397 3.054 3.29 3.054 5.265h-1.713c0-1.65-.918-3.232-2.552-4.4-1.633-1.166-3.849-1.822-6.16-1.822-2.058 0-4.042.52-5.605 1.46.124.184.242.371.351.56 1.512-.888 3.44-1.382 5.44-1.382 2.223 0 4.353.608 5.924 1.69 1.57 1.083 2.453 2.55 2.453 4.08h-1.376c0-1.278-.738-2.505-2.05-3.41-1.313-.904-3.094-1.412-4.95-1.412-1.857 0-3.637.508-4.95 1.413.05.119.099.239.144.36 1.244-.79 2.898-1.232 4.62-1.232 1.777 0 3.481.471 4.738 1.309 1.191.794 1.887 1.855 1.957 2.973H53.62c0 1.504-.7 2.993-2.06 4.38-1.361 1.388-3.354 2.647-5.864 3.703s-5.487 1.89-8.758 2.45c-3.271.562-6.771.841-10.297.82-3.526-.02-7.007-.339-10.24-.938-3.235-.599-6.158-1.466-8.6-2.55-2.442-1.086-4.355-2.367-5.627-3.77C.901 17.163.295 15.666.391 14.163l5.575.064c.018-2.646 1.35-5.18 3.707-7.051 2.208-1.754 5.147-2.792 8.249-2.929.088-.366.312-.726.665-1.068.468-.451 1.154-.862 2.018-1.208.864-.345 1.89-.62 3.02-.807a21.98 21.98 0 0 1 3.561-.283c1.223 0 2.433.096 3.562.283 1.13.187 2.155.462 3.02.807.864.346 1.55.757 2.017 1.208ZM8.045 14.25l.154.003c.012-1.964 1.109-3.845 3.053-5.234 1.955-1.397 4.607-2.181 7.371-2.181 2.765 0 5.417.784 7.371 2.18 1.955 1.397 3.054 3.29 3.054 5.265h-1.713c0-1.65-.918-3.232-2.552-4.4-1.633-1.166-3.85-1.822-6.16-1.822s-4.526.656-6.16 1.823c-1.63 1.164-2.547 2.742-2.55 4.389l.525.005c.07-1.46.943-2.852 2.448-3.889 1.571-1.082 3.702-1.69 5.924-1.69 2.221 0 4.352.608 5.923 1.69 1.57 1.083 2.453 2.55 2.453 4.08H27h12.754c-.064-.636-.452-1.24-1.104-1.712-.716-.517-1.698-.836-2.75-.892-1.052-.057-2.098.153-2.929.587-.83.434-1.385 1.061-1.554 1.756l-.136-.015v.09h-2.08c0-2.227-1.114-4.364-3.098-5.94-1.984-1.575-4.674-2.46-7.48-2.46-2.805 0-5.496.885-7.48 2.46-1.973 1.568-3.087 3.692-3.097 5.908Zm32.536.22h.389c-.07-.923-.65-1.798-1.633-2.454-1.05-.7-2.475-1.094-3.96-1.094-1.486 0-2.91.394-3.96 1.094-.178.118-.31.174-.41.189.072.267.13.538.173.81a4.215 4.215 0 0 1 1.282-.996c.994-.52 2.245-.77 3.504-.703 1.26.067 2.434.449 3.29 1.068.794.573 1.26 1.31 1.325 2.086Zm-14.771-.014c-.005-1.274-.742-2.495-2.05-3.396-1.313-.905-3.094-1.413-4.95-1.413-1.857 0-3.637.508-4.95 1.413-1.253.863-1.982 2.02-2.046 3.234l.13.002c.128-1.053.812-2.047 1.94-2.8 1.258-.837 2.962-1.308 4.74-1.308 1.777 0 3.481.471 4.738 1.309 1.184.79 1.879 1.843 1.956 2.953l.492.006Zm-1.596-.018c-.08-.911-.658-1.774-1.63-2.422-1.05-.7-2.475-1.094-3.96-1.094-1.486 0-2.91.394-3.96 1.094-.927.618-1.496 1.43-1.616 2.293l.761.008c.117-.764.625-1.482 1.447-2.03.942-.629 2.22-.982 3.554-.982 1.333 0 2.61.353 3.553.982.864.575 1.38 1.339 1.462 2.146l.389.005Zm-1.219-.014c-.082-.658-.51-1.278-1.216-1.748-.787-.525-1.855-.82-2.97-.82-1.113 0-2.182.295-2.97.82-.67.447-1.09 1.03-1.2 1.651l8.356.097Zm9.233-10.035c.067.062.125.125.175.188-.176.043-.35.089-.523.138a3.507 3.507 0 0 0-.9-.574 6.85 6.85 0 0 0-1.57-.484 9.942 9.942 0 0 0-1.852-.17c-.635 0-1.264.058-1.852.17a6.85 6.85 0 0 0-1.57.484c-.45.208-.806.454-1.049.725l-.008.009a15.03 15.03 0 0 0-.798-.215c.062-.092.14-.183.236-.271.264-.245.65-.468 1.139-.656a8.564 8.564 0 0 1 1.705-.438 12.898 12.898 0 0 1 2.011-.154c.69 0 1.374.052 2.012.154.637.101 1.217.25 1.705.438s.875.41 1.14.656Zm-2.192.188c.317.146.57.32.746.51a13.2 13.2 0 0 0-1.105.49 2.436 2.436 0 0 0-.33-.319 2.918 2.918 0 0 0-.906-.484 3.407 3.407 0 0 0-1.069-.17c-.366 0-.73.058-1.068.17a2.918 2.918 0 0 0-.906.484c-.137.11-.258.23-.363.358a13.998 13.998 0 0 0-.835-.356 1.25 1.25 0 0 1 .121-.158c.176-.196.435-.375.76-.525.325-.15.712-.269 1.137-.35.425-.082.88-.123 1.34-.123.46 0 .916.041 1.341.123.425.081.812.2 1.137.35Zm-1.234 1.117c.086.07.165.145.234.225-.578.326-1.134.693-1.672 1.094a12.59 12.59 0 0 0-1.675-1.07c.074-.09.159-.173.254-.249.188-.15.41-.27.656-.35a2.467 2.467 0 0 1 1.547 0c.245.08.468.2.656.35Zm-8.298-1.436c.076-.235.229-.465.457-.686.338-.327.835-.624 1.46-.874.626-.25 1.37-.449 2.187-.584a15.912 15.912 0 0 1 2.578-.205c.885 0 1.761.07 2.579.205.817.135 1.56.334 2.186.584.626.25 1.122.547 1.46.874.033.032.065.064.094.096a6.268 6.268 0 0 0-1-.48c-.673-.26-1.474-.465-2.355-.605-.88-.14-1.824-.213-2.778-.213-.953 0-1.897.072-2.778.213-.88.14-1.68.346-2.355.605-.674.26-1.209.567-1.574.906a2.472 2.472 0 0 0-.161.164Z" fill="#606C5D"/></svg>