<svg width="37" height="36" fill="none" xmlns="http://www.w3.org/2000/svg"><path d="M12.133 3h12.6c4.8 0 8.7 3.9 8.7 8.7v12.6a8.7 8.7 0 0 1-8.7 8.7h-12.6c-4.8 0-8.7-3.9-8.7-8.7V11.7a8.7 8.7 0 0 1 8.7-8.7Zm-.3 3a5.4 5.4 0 0 0-5.4 5.4v13.2c0 2.985 2.415 5.4 5.4 5.4h13.2a5.4 5.4 0 0 0 5.4-5.4V11.4c0-2.985-2.415-5.4-5.4-5.4h-13.2Zm14.475 2.25a1.875 1.875 0 1 1 0 3.75 1.875 1.875 0 0 1 0-3.75Zm-7.875 2.25a7.5 7.5 0 1 1 0 15 7.5 7.5 0 0 1 0-15Zm0 3a4.5 4.5 0 1 0 0 9 4.5 4.5 0 0 0 0-9Z" fill="#606C5D"/></svg>