<svg width="37" height="36" viewBox="0 0 37 36" fill="none" xmlns="http://www.w3.org/2000/svg">
<path d="M30.4331 27H27.4331V13.875L18.4331 19.5L9.4331 13.875V27H6.4331V9H8.2331L18.4331 15.375L28.6331 9H30.4331M30.4331 6H6.4331C4.76811 6 3.43311 7.335 3.43311 9V27C3.43311 27.7956 3.74918 28.5587 4.31178 29.1213C4.87439 29.6839 5.63746 30 6.4331 30H30.4331C31.2288 30 31.9918 29.6839 32.5544 29.1213C33.117 28.5587 33.4331 27.7956 33.4331 27V9C33.4331 8.20435 33.117 7.44129 32.5544 6.87868C31.9918 6.31607 31.2288 6 30.4331 6Z" fill="#606C5D"/>
</svg>
