<svg width="54" height="26" viewBox="0 0 54 26" fill="none" xmlns="http://www.w3.org/2000/svg">
<path fill-rule="evenodd" clip-rule="evenodd" d="M35.7851 3.17921C36.1454 3.52717 36.371 3.89437 36.4556 4.26818C39.4174 4.4693 42.209 5.49367 44.3272 7.17576C46.7011 9.06086 48.0347 11.6176 48.0347 14.2835H45.9547C45.9547 12.0557 44.8402 9.91906 42.8565 8.34371C40.8727 6.76837 38.1822 5.88336 35.3767 5.88336C32.6868 5.88336 30.3671 6.49107 28.432 7.92967C28.6019 8.09514 28.7649 8.26452 28.9206 8.43753C30.7505 7.40647 33.0225 6.83766 35.3767 6.83766C38.1414 6.83766 40.7928 7.62214 42.7477 9.01851C44.7026 10.4149 45.8009 12.3088 45.8009 14.2835H44.088C44.088 12.6333 43.1702 11.0506 41.5365 9.88366C39.9028 8.71674 37.6871 8.06117 35.3767 8.06117C33.3178 8.06117 31.3341 8.58177 29.7705 9.52092C29.8952 9.70502 30.0126 9.89207 30.1225 10.0818C31.6336 9.19263 33.5613 8.69914 35.5628 8.69914C37.7845 8.69914 39.9151 9.30711 41.486 10.3893C43.0569 11.4715 43.9394 12.9392 43.9394 14.4697H42.563C42.563 13.1907 41.8255 11.9641 40.5127 11.0598C39.1999 10.1554 37.4194 9.64736 35.5628 9.64736C33.7063 9.64736 31.9258 10.1554 30.613 11.0598L30.6129 11.0599C30.6637 11.179 30.7117 11.299 30.7568 11.4196C32.0011 10.6301 33.6547 10.1883 35.3767 10.1883C37.154 10.1883 38.8585 10.659 40.1152 11.4968C41.306 12.2907 42.0023 13.3525 42.0722 14.4697H53.6191C53.6191 15.9738 52.9186 17.4629 51.5582 18.8505C50.1979 20.2381 48.2049 21.4966 45.6948 22.553C43.1848 23.6093 40.2078 24.4424 36.9367 25.0038C33.6657 25.5653 30.1657 25.844 26.6401 25.8236C23.1144 25.8033 19.6334 25.4843 16.3991 24.8853C13.1649 24.2863 10.2418 23.4192 7.79965 22.3343C5.35751 21.2494 3.445 19.9684 2.17315 18.5655C0.901302 17.1627 0.295473 15.6661 0.390843 14.1626L5.96568 14.2269C5.98442 11.5814 7.3159 9.04751 9.67291 7.17576C11.8808 5.42243 14.8204 4.38371 17.9217 4.24707C18.01 3.88054 18.2338 3.52062 18.5873 3.17921C19.0551 2.72752 19.7407 2.31711 20.6049 1.9714C21.4692 1.6257 22.4952 1.35147 23.6244 1.16437C24.7537 0.977278 25.9639 0.880981 27.1862 0.880981C28.4085 0.880981 29.6188 0.977278 30.748 1.16437C31.8772 1.35147 32.9032 1.6257 33.7675 1.9714C34.6318 2.31711 35.3173 2.72752 35.7851 3.17921ZM8.04552 14.2509L8.19936 14.2527C8.21073 12.2891 9.30771 10.4076 11.2525 9.01851C13.2074 7.62214 15.8588 6.83766 18.6235 6.83766C21.3882 6.83766 24.0396 7.62214 25.9945 9.01851C27.9494 10.4149 29.0477 12.3088 29.0477 14.2835H27.3348C27.3348 12.6333 26.417 11.0506 24.7833 9.88366C23.1496 8.71674 20.9339 8.06117 18.6235 8.06117C16.3131 8.06117 14.0974 8.71674 12.4637 9.88366C10.8336 11.048 9.91629 12.6262 9.9122 14.2725L10.4376 14.2785C10.5079 12.8175 11.3811 11.4263 12.8865 10.3893C14.4574 9.3071 16.588 8.69914 18.8096 8.69914C21.0313 8.69914 23.1619 9.30711 24.7328 10.3893C26.3037 11.4715 27.1862 12.9392 27.1862 14.4697H26.9995L27.0001 14.4697H39.7537C39.6901 13.8334 39.3021 13.2284 38.6496 12.757C37.9338 12.2398 36.952 11.9212 35.8998 11.8648C34.8476 11.8083 33.8021 12.0181 32.9714 12.4523C32.1407 12.8865 31.5857 13.5133 31.4168 14.208L31.2809 14.1933C31.2813 14.2234 31.2814 14.2534 31.2814 14.2835H29.2015C29.2015 12.0557 28.087 9.91906 26.1032 8.34372C24.1195 6.76838 21.4289 5.88336 18.6235 5.88336C15.818 5.88336 13.1274 6.76838 11.1437 8.34372C9.1696 9.91136 8.05635 12.0348 8.04552 14.2509ZM40.5811 14.4697H40.9699C40.9008 13.5473 40.3208 12.6721 39.3366 12.0159C38.2863 11.3157 36.8619 10.9224 35.3767 10.9224C33.8914 10.9224 32.467 11.3157 31.4168 12.0159C31.2391 12.1343 31.1062 12.1897 31.0078 12.2047C31.0791 12.4724 31.1367 12.7429 31.1804 13.0155C31.5021 12.6335 31.9357 12.294 32.4618 12.019C33.4559 11.4994 34.707 11.2484 35.9661 11.316C37.2252 11.3835 38.3999 11.7647 39.2566 12.3836C40.0499 12.9567 40.5164 13.6949 40.5811 14.4697ZM25.8098 14.456C25.8045 13.1819 25.0676 11.9609 23.7595 11.0598C22.4467 10.1554 20.6662 9.64736 18.8096 9.64736C16.9531 9.64736 15.1726 10.1554 13.8598 11.0598C12.6071 11.9228 11.8782 13.0791 11.8141 14.2944L11.9439 14.2959C12.0716 13.2428 12.7561 12.2494 13.8849 11.4968C15.1417 10.659 16.8462 10.1883 18.6235 10.1883C20.4007 10.1883 22.1052 10.659 23.362 11.4968C24.5458 12.2861 25.241 13.3402 25.3176 14.4503L25.8098 14.456ZM24.214 14.4375C24.1341 13.527 23.5561 12.6644 22.5833 12.0159C21.5331 11.3157 20.1087 10.9224 18.6235 10.9224C17.1382 10.9224 15.7138 11.3157 14.6636 12.0159C13.7368 12.6337 13.1684 13.4458 13.0476 14.3087L13.8093 14.3174C13.9257 13.5531 14.4336 12.8347 15.2557 12.2866C16.1983 11.6582 17.4766 11.3052 18.8096 11.3052C20.1426 11.3052 21.4209 11.6582 22.3635 12.2866C23.227 12.8622 23.7438 13.6258 23.8245 14.433L24.214 14.4375ZM22.9952 14.4235C22.9131 13.7659 22.4846 13.1459 21.7795 12.6759C20.9919 12.1508 19.9235 11.8558 18.8096 11.8558C17.6957 11.8558 16.6274 12.1508 15.8397 12.6759C15.1692 13.1229 14.7488 13.7055 14.6386 14.327L22.9952 14.4235ZM32.2281 4.38877C32.2947 4.45063 32.3532 4.51361 32.4034 4.57746C32.2271 4.61976 32.0528 4.66571 31.8802 4.71521C31.6488 4.50336 31.3454 4.30955 30.9808 4.14129C30.5314 3.93386 29.9979 3.76932 29.4107 3.65707C28.8235 3.54481 28.1941 3.48703 27.5585 3.48703C26.923 3.48703 26.2936 3.54481 25.7064 3.65707C25.1192 3.76932 24.5857 3.93386 24.1363 4.14129C23.6869 4.34871 23.3304 4.59496 23.0871 4.86597L23.0791 4.87496C22.8163 4.79648 22.5502 4.72491 22.2811 4.66042C22.3427 4.56805 22.4213 4.47726 22.5166 4.38877C22.7808 4.14352 23.1679 3.92067 23.6559 3.73296C24.144 3.54525 24.7234 3.39635 25.361 3.29476C25.9987 3.19317 26.6822 3.14089 27.3724 3.14089C28.0626 3.14089 28.746 3.19317 29.3837 3.29476C30.0213 3.39635 30.6007 3.54525 31.0888 3.73296C31.5768 3.92067 31.964 4.14352 32.2281 4.38877ZM30.0362 4.57728C30.3529 4.72348 30.6059 4.89632 30.7816 5.08641C30.4048 5.23332 30.037 5.39732 29.6774 5.57695C29.58 5.463 29.4694 5.35624 29.3468 5.25817C29.0875 5.05074 28.7797 4.8862 28.4409 4.77395C28.1021 4.66169 27.7391 4.60391 27.3724 4.60391C27.0057 4.60391 26.6426 4.66169 26.3039 4.77395C25.9651 4.8862 25.6573 5.05074 25.398 5.25817C25.2614 5.36744 25.1397 5.4875 25.0346 5.61627C24.7619 5.48907 24.4835 5.37015 24.2001 5.25971C24.2345 5.20629 24.275 5.15362 24.3214 5.10193C24.4975 4.90572 24.7556 4.72745 25.0809 4.57728C25.4063 4.42711 25.7926 4.30799 26.2177 4.22672C26.6428 4.14545 27.0984 4.10362 27.5585 4.10362C28.0187 4.10362 28.4743 4.14545 28.8994 4.22672C29.3245 4.30799 29.7108 4.42711 30.0362 4.57728ZM28.8018 5.69416C28.8883 5.76335 28.9665 5.83851 29.0357 5.91864C28.4581 6.24541 27.902 6.61238 27.3642 7.01299C26.8417 6.61679 26.2807 6.25934 25.6885 5.94299C25.7626 5.8537 25.8478 5.77032 25.943 5.69416C26.1307 5.54399 26.3535 5.42487 26.5988 5.3436C26.8441 5.26233 27.1069 5.2205 27.3724 5.2205C27.6378 5.2205 27.9007 5.26233 28.146 5.3436C28.3912 5.42487 28.6141 5.54399 28.8018 5.69416ZM20.5036 4.25845C20.5796 4.02323 20.733 3.79253 20.9609 3.57247C21.2995 3.24547 21.7959 2.94834 22.4216 2.69806C23.0473 2.44778 23.7901 2.24925 24.6076 2.11379C25.4251 1.97834 26.3013 1.90863 27.1862 1.90863C28.0711 1.90863 28.9473 1.97834 29.7648 2.11379C30.5823 2.24925 31.3251 2.44778 31.9509 2.69806C32.5766 2.94834 33.0729 3.24547 33.4115 3.57247C33.4444 3.60422 33.4757 3.63619 33.5055 3.66836C33.22 3.49497 32.8849 3.33379 32.5058 3.18797C31.8316 2.92869 31.0313 2.72302 30.1505 2.5827C29.2697 2.44238 28.3257 2.37015 27.3724 2.37015C26.419 2.37015 25.475 2.44238 24.5942 2.5827C23.7134 2.72302 22.9131 2.92869 22.239 3.18797C21.5648 3.44725 21.0301 3.75506 20.6653 4.09383C20.6068 4.1481 20.5529 4.20301 20.5036 4.25845Z" fill="#606C5D"/>
</svg>
