<svg width="37" height="36" viewBox="0 0 37 36" fill="none" xmlns="http://www.w3.org/2000/svg">
<path d="M12.1329 3.00012H24.7329C29.5329 3.00012 33.4329 6.90012 33.4329 11.7001V24.3001C33.4329 26.6075 32.5163 28.8204 30.8847 30.4519C29.2531 32.0835 27.0402 33.0001 24.7329 33.0001H12.1329C7.33286 33.0001 3.43286 29.1001 3.43286 24.3001V11.7001C3.43286 9.39274 4.34947 7.17986 5.98103 5.54829C7.6126 3.91673 9.82548 3.00012 12.1329 3.00012ZM11.8329 6.00012C10.4007 6.00012 9.02718 6.56905 8.01448 7.58174C7.00179 8.59444 6.43286 9.96795 6.43286 11.4001V24.6001C6.43286 27.5851 8.84786 30.0001 11.8329 30.0001H25.0329C26.465 30.0001 27.8385 29.4312 28.8512 28.4185C29.8639 27.4058 30.4329 26.0323 30.4329 24.6001V11.4001C30.4329 8.41512 28.0179 6.00012 25.0329 6.00012H11.8329ZM26.3079 8.25012C26.8051 8.25012 27.2821 8.44767 27.6337 8.7993C27.9853 9.15093 28.1829 9.62784 28.1829 10.1251C28.1829 10.6224 27.9853 11.0993 27.6337 11.4509C27.2821 11.8026 26.8051 12.0001 26.3079 12.0001C25.8106 12.0001 25.3337 11.8026 24.982 11.4509C24.6304 11.0993 24.4329 10.6224 24.4329 10.1251C24.4329 9.62784 24.6304 9.15093 24.982 8.7993C25.3337 8.44767 25.8106 8.25012 26.3079 8.25012ZM18.4329 10.5001C20.422 10.5001 22.3296 11.2903 23.7362 12.6968C25.1427 14.1033 25.9329 16.011 25.9329 18.0001C25.9329 19.9892 25.1427 21.8969 23.7362 23.3034C22.3296 24.7099 20.422 25.5001 18.4329 25.5001C16.4437 25.5001 14.5361 24.7099 13.1296 23.3034C11.723 21.8969 10.9329 19.9892 10.9329 18.0001C10.9329 16.011 11.723 14.1033 13.1296 12.6968C14.5361 11.2903 16.4437 10.5001 18.4329 10.5001ZM18.4329 13.5001C17.2394 13.5001 16.0948 13.9742 15.2509 14.8181C14.407 15.6621 13.9329 16.8066 13.9329 18.0001C13.9329 19.1936 14.407 20.3382 15.2509 21.1821C16.0948 22.026 17.2394 22.5001 18.4329 22.5001C19.6263 22.5001 20.7709 22.026 21.6148 21.1821C22.4588 20.3382 22.9329 19.1936 22.9329 18.0001C22.9329 16.8066 22.4588 15.6621 21.6148 14.8181C20.7709 13.9742 19.6263 13.5001 18.4329 13.5001Z" fill="#606C5D"/>
</svg>
